<svg version="1.1" id="Layer_1" xmlns="http://www.w3.org/2000/svg" xmlns:xlink="http://www.w3.org/1999/xlink" x="0px" y="0px"
	 viewBox="0 0 512 512" style="enable-background:new 0 0 512 512;" xml:space="preserve">
<g>
	<path fill="#C70101" d="M31,256C31,131.7,131.7,31,256,31s225,100.7,225,225S380.3,481,256,481S31,380.3,31,256z M240.6,152.7L117.6,275.6
		c-8.5,8.5-8.5,22.3,0,30.8l15.4,15.4c8.5,8.5,22.3,8.5,30.8,0l92.2-92.2l92.2,92.2c8.5,8.5,22.3,8.5,30.8,0l15.4-15.4
		c8.5-8.5,8.5-22.3,0-30.8L271.4,152.7C262.9,144.1,249.1,144.1,240.6,152.7z"/>
</g>
</svg>
